<svg width="76" height="76" viewBox="0 0 76 76" fill="none" xmlns="http://www.w3.org/2000/svg">
<g filter="url(#filter0_d_3080_8880)">
<path d="M9 38C9 21.9837 21.9837 9 38 9V9C54.0163 9 67 21.9837 67 38V38C67 54.0163 54.0163 67 38 67V67C21.9837 67 9 54.0163 9 38V38Z" fill="url(#paint0_linear_3080_8880)"/>
<path d="M38 6.5C55.397 6.5 69.5 20.603 69.5 38C69.5 55.397 55.397 69.5 38 69.5C20.603 69.5 6.5 55.397 6.5 38C6.5 20.603 20.603 6.5 38 6.5Z" stroke="url(#paint1_linear_3080_8880)" stroke-width="5"/>
</g>
<path d="M37.7769 56.6171C37.7934 57.7779 37.81 58.6236 37.8265 59.0382C37.843 59.0879 37.843 59.1543 37.8265 59.204C37.8265 59.2704 37.8265 59.3201 37.8265 59.3201C37.8265 59.5523 37.8595 59.7844 37.9256 60C37.9917 59.7844 38.0248 59.5523 38.0248 59.3201C38.0248 59.2372 38.0578 58.0267 38.1074 56.0865C38.0909 56.1031 38.0744 56.1197 38.0744 56.1362C37.9587 56.2855 37.8595 56.4513 37.7769 56.6171ZM34.3394 32.4064C34.6038 32.1245 34.8517 31.7929 35.0335 31.4446C34.9013 31.7431 34.389 32.8707 34.8848 32.9702C35.4302 33.0697 36.0416 32.9039 37.1489 31.4944C37.1158 29.6869 37.0828 28.1115 37.0663 26.9176H36.4713C36.4383 26.9176 36.4217 26.9176 36.3887 26.9176C36.0582 26.9176 35.5128 26.8844 35.1492 26.3372C34.7526 25.7402 34.7361 25.1266 34.7195 24.6789C34.703 24.0322 34.5377 22.8548 33.728 22.1915C33.1661 21.7438 31.6456 21.3955 30.2409 21.9593C29.7782 22.1417 28.8527 22.6226 27.9437 23.0704C27.1174 23.4849 26.0598 23.999 25.7292 23.999C26.2746 23.7503 27.0018 23.3854 27.795 22.9377C28.704 22.4402 29.6625 21.9096 30.1417 21.7106C31.1003 21.3292 32.9347 21.2131 33.8767 21.9759C34.7691 22.7056 34.9509 23.9658 34.9674 24.6457C34.984 25.0935 35.0005 25.6407 35.3475 26.1879C35.6615 26.6522 36.1573 26.6522 36.4548 26.6522H36.5209H37.0497C37.0497 26.503 37.0497 26.3703 37.0497 26.2211C36.5209 26.2542 35.7607 26.2874 35.4302 25.5744C35.0335 24.7121 35.4632 22.5066 34.1411 21.5779C32.819 20.6493 30.7036 20.8815 28.8196 21.9759C26.9522 23.0538 24.4732 24.4633 21.4159 25.6904C18.3585 26.9176 16.458 27.415 16.0944 27.4648C15.7473 27.5311 16.3753 27.7633 17.6809 27.7964C18.9865 27.8296 20.0772 27.7301 20.0772 27.7301L29.6625 23.3523C29.6625 23.3523 21.3993 27.4814 20.7052 27.9291C20.0111 28.3768 19.4492 28.5261 19.4988 28.9406C19.5484 29.3552 20.0772 29.3055 21.5315 29.2723C22.9859 29.2391 23.2999 29.1065 23.7956 28.9572C24.2914 28.808 29.6625 26.3206 29.6625 26.3206C29.6625 26.3206 23.9113 29.1894 23.085 29.8527C22.2587 30.516 23.1511 30.7316 23.713 30.7481C24.2914 30.7647 25.8284 30.6818 26.6877 30.2507C27.5471 29.8195 30.2244 28.0949 30.2244 28.0949C30.2244 28.0949 27.5802 30.0019 27.0679 30.4331C26.6547 30.7813 26.4399 31.0798 26.539 31.4446C26.6877 31.9089 27.481 31.8592 28.5387 31.4778C28.5387 31.4778 29.6294 31.0964 30.0426 30.7316C30.4557 30.3502 31.6126 29.322 31.6126 29.322C31.6126 29.322 30.2409 30.7481 29.8939 31.3617C29.5633 31.9753 29.4972 32.1245 29.6625 32.4728C29.8939 32.9702 31.6456 32.4562 32.1414 31.9255C32.505 31.511 32.8521 31.0798 33.1661 30.6155C33.1661 30.6155 32.6372 31.4778 32.5215 31.9753C32.4058 32.4728 32.2736 32.8707 32.7529 32.9205C33.2817 33.0034 33.7775 33.02 34.3394 32.4064ZM37.6116 43.6992C37.6612 43.6661 37.7108 43.6329 37.7604 43.5997C37.8595 43.5334 37.9422 43.4837 38.0083 43.4173C38.1405 43.3344 38.2727 43.2349 38.4049 43.152C38.4214 42.2068 38.4545 41.245 38.471 40.2998C38.2066 40.1837 37.9256 40.0676 37.6282 39.9515C37.6116 39.9515 37.5951 39.935 37.5786 39.935C37.5455 39.9184 37.529 39.9184 37.496 39.9018C37.2976 39.8355 37.1158 39.7525 36.901 39.6862C36.6531 39.5867 36.4052 39.5038 36.1573 39.4043C34.5047 40.2832 34.1742 40.6978 34.1742 41.5103C34.1742 42.6545 35.1492 43.1686 36.8349 44.2465C37.0993 44.0475 37.3637 43.8651 37.6116 43.6992ZM35.5789 41.6596C35.5789 41.6596 35.4632 40.9299 37.3307 40.0842C37.3803 40.0676 37.4298 40.0345 37.4794 40.0179C37.4959 41.1621 37.5125 42.3063 37.5455 43.4505C36.6201 42.8203 35.5789 42.2234 35.5789 41.6596ZM38.4049 55.7383C38.3223 55.8377 38.2396 55.9372 38.157 56.0202C38.6363 56.6669 38.6032 57.297 38.3388 58.1096C38.5867 57.8277 39.0825 57.1146 38.6693 56.186C38.5867 56.0367 38.5041 55.8875 38.4049 55.7383ZM37.6447 48.9394C37.8265 49.1218 38.0413 49.3373 38.2562 49.5529C38.3884 49.6856 38.5206 49.8182 38.6693 49.9675C38.6858 49.9841 38.7189 50.0006 38.7519 50.0338C39.8757 49.0554 40.9004 48.1268 40.9004 46.966C40.9004 46.054 40.0245 45.2248 39.1486 44.5615C39.0659 44.6113 38.9833 44.661 38.9007 44.7274C38.7024 44.86 38.5206 44.9761 38.3553 45.0922C38.3553 45.0922 38.3388 45.0922 38.3388 45.1088C38.3057 45.1419 38.2562 45.1585 38.2231 45.1917C37.9917 45.3575 37.7769 45.5067 37.5786 45.656C37.6116 46.767 37.6282 47.8781 37.6447 48.9394ZM38.3553 45.2746C39.4461 46.0705 39.8757 46.5846 39.8757 47.1484C39.8757 47.7288 39.2643 48.4087 38.2727 49.4037C38.2892 48.0771 38.3223 46.7007 38.3553 45.2746ZM44.3874 29.3386C44.3874 29.3386 45.5443 30.3667 45.9574 30.7481C46.3706 31.1296 47.4613 31.4944 47.4613 31.4944C48.519 31.8758 49.3123 31.9255 49.461 31.4612C49.5767 31.0964 49.3453 30.7813 48.9321 30.4497C48.4198 30.0185 45.7756 28.1115 45.7756 28.1115C45.7756 28.1115 48.4529 29.8361 49.3122 30.2673C50.1716 30.6984 51.7086 30.7813 52.287 30.7647C52.8654 30.7482 53.7413 30.5326 52.915 29.8693C52.0887 29.206 46.3375 26.3372 46.3375 26.3372C46.3375 26.3372 51.692 28.8411 52.2044 28.9738C52.7001 29.123 53.0141 29.2391 54.4685 29.2889C55.9228 29.322 56.4351 29.3718 56.5012 28.9572C56.5673 28.5592 55.9889 28.41 55.2948 27.9457C54.6007 27.4979 46.3375 23.3689 46.3375 23.3689L55.9228 27.7467C55.9228 27.7467 57.0135 27.8462 58.3191 27.813C59.6247 27.7798 60.2527 27.5477 59.9056 27.4814C59.5586 27.415 57.6415 26.9341 54.5841 25.707C51.5268 24.4799 49.0478 23.087 47.1804 21.9925C45.3129 20.9146 43.181 20.6659 41.8589 21.5945C40.5368 22.5231 40.9665 24.7121 40.5698 25.5909C40.2393 26.304 39.4791 26.2708 38.9503 26.2377C38.9503 26.3703 38.9503 26.5196 38.9337 26.6688H39.4791H39.5452C39.8427 26.6688 40.3385 26.6688 40.6525 26.2045C40.9995 25.6739 41.0161 25.11 41.0326 24.6623C41.0491 23.9824 41.2309 22.7221 42.1233 21.9925C43.0653 21.2297 44.8997 21.3458 45.8583 21.7272C46.3375 21.9096 47.296 22.4402 48.205 22.9543C48.9983 23.402 49.7254 23.7668 50.2708 24.0156C49.9237 24.0156 48.8826 23.5015 48.0563 23.087C47.1638 22.6226 46.2384 22.1583 45.7591 21.9759C44.3544 21.4121 42.8339 21.7603 42.272 22.2081C41.4457 22.8714 41.297 24.0487 41.2805 24.6955C41.2639 25.1432 41.2474 25.7733 40.8508 26.3537C40.5037 26.901 39.9584 26.9341 39.6113 26.9341C39.5783 26.9341 39.5617 26.9341 39.5287 26.9341H38.9337C38.9007 28.1281 38.8676 29.6869 38.8346 31.4612C39.9584 32.9039 40.6029 33.0863 41.1317 32.9702C41.6275 32.8707 41.1317 31.7431 40.983 31.4446C41.1813 31.7929 41.4127 32.1079 41.6771 32.4064C42.2225 33.02 42.7348 33.0034 43.2306 32.9371C43.7264 32.8707 43.5776 32.4893 43.4619 31.9919C43.3463 31.4944 42.8174 30.6321 42.8174 30.6321C43.1314 31.0798 43.4785 31.5275 43.842 31.9421C44.3378 32.4727 46.0896 33.0034 46.321 32.4893C46.4697 32.1577 46.4201 31.9919 46.0896 31.3783C45.7756 30.7647 44.3874 29.3386 44.3874 29.3386ZM38.0248 24.2643C38.2892 24.2643 38.5536 24.1814 38.7685 24.0322C38.9833 23.8829 39.1651 23.6673 39.2643 23.4352C39.3634 23.1864 39.3965 22.9211 39.3469 22.6558C39.2973 22.3905 39.1651 22.1583 38.9833 21.9593C38.8015 21.7769 38.5536 21.6443 38.2892 21.5945C38.0248 21.5448 37.7604 21.5613 37.5125 21.6774C37.2646 21.7769 37.0497 21.9593 36.9175 22.1749C36.7688 22.3905 36.6862 22.6558 36.6862 22.9211C36.6862 23.1035 36.7192 23.2694 36.7853 23.4352C36.8514 23.601 36.9506 23.7503 37.0828 23.8663C37.215 23.999 37.3472 24.0985 37.5125 24.1648C37.6612 24.2312 37.843 24.2643 38.0248 24.2643ZM42.4208 34.3466C42.4208 34.3466 42.3877 33.418 40.8838 33.3185C39.3469 33.219 39.2808 33.8823 39.3138 34.131C39.4295 34.131 39.5287 34.1642 39.5287 34.1973C39.5287 34.2305 39.4461 34.2637 39.3469 34.2637C39.4295 34.5124 39.6609 34.8109 40.3219 35.1426C40.8673 35.4079 41.1317 35.3913 41.4457 35.3416C41.4457 35.3416 41.8093 35.5571 41.8093 35.9054C41.8093 36.237 41.2309 36.8837 38.5206 38.2435C38.6858 30.914 38.8346 24.4799 38.8346 24.4799H38.9998C39.0659 24.4799 39.1321 24.4467 39.1816 24.397C39.2312 24.3472 39.2643 24.2809 39.2643 24.2146V24.1317C39.2643 24.0985 39.2643 24.0653 39.2477 24.0322C39.2312 23.999 39.2147 23.9658 39.1816 23.9493C39.0329 24.1151 38.8676 24.2477 38.6693 24.3472C38.471 24.4467 38.2562 24.4799 38.0413 24.4799C37.8265 24.4799 37.6116 24.4301 37.4133 24.3472C37.215 24.2643 37.0332 24.1151 36.901 23.9493C36.8679 23.9824 36.8514 23.999 36.8349 24.0322C36.8184 24.0653 36.8184 24.0985 36.8184 24.1317V24.2146C36.8184 24.2809 36.8514 24.3472 36.901 24.397C36.9506 24.4467 37.0167 24.4799 37.0828 24.4799H37.2481C37.2481 24.4799 37.3637 30.7316 37.4794 37.9285C37.7108 38.0445 37.9422 38.1606 38.2066 38.2933C38.2396 38.3099 38.2892 38.3264 38.3223 38.343C38.9337 38.6415 39.4461 38.8902 39.8757 39.1224C41.33 38.5586 42.7513 37.9119 43.181 36.9998C43.9412 35.3084 42.4208 34.3466 42.4208 34.3466ZM40.4046 33.9652C40.2393 33.9652 40.1071 33.8823 40.1071 33.7828C40.1071 33.6833 40.2393 33.6004 40.4046 33.6004C40.5698 33.6004 40.7021 33.6833 40.7021 33.7828C40.7021 33.8823 40.5698 33.9652 40.4046 33.9652ZM37.7769 54.9589C37.9091 54.793 38.0248 54.6272 38.157 54.478C38.1735 53.5328 38.2066 52.4715 38.2231 51.3273C38.0578 51.1614 37.8761 50.9956 37.6777 50.8132C37.6116 50.7634 37.5621 50.6971 37.496 50.6474C37.4133 50.5645 37.3307 50.4981 37.2481 50.4318C36.7853 50.8629 35.8764 51.8247 35.8764 52.6539C35.8764 53.6322 36.8184 54.6272 37.529 55.3403C37.5951 55.191 37.6777 55.0749 37.7769 54.9589ZM37.6777 51.0122C37.7108 52.4217 37.7273 53.7152 37.7438 54.8262C37.1985 54.0966 36.6201 53.3503 36.6201 52.8363C36.6201 52.3554 36.901 51.8082 37.6777 51.0122ZM38.0578 38.5088C34.8352 36.9501 34.1742 36.237 34.1742 35.8888C34.1742 35.5405 34.5377 35.325 34.5377 35.325C34.8517 35.3913 35.1162 35.3913 35.6615 35.126C36.3226 34.8109 36.554 34.4958 36.6366 34.2471C36.5374 34.2471 36.4548 34.2139 36.4548 34.1808C36.4548 34.1476 36.554 34.1144 36.6696 34.1144V34.0979C36.6862 33.8491 36.6035 33.2024 35.0831 33.3019C33.5792 33.4014 33.5462 34.33 33.5462 34.33C33.5462 34.33 32.0257 35.3084 32.819 36.9667C33.5131 38.4425 36.7688 39.2219 38.6528 40.0676C40.5203 40.9133 40.4046 41.643 40.4046 41.643C40.4046 42.2731 39.1486 42.9364 38.157 43.6329C37.1654 44.3294 35.0666 45.5399 35.0666 46.966C35.0666 48.276 36.3722 49.2876 37.6447 50.4152C38.9337 51.5428 39.3469 52.2227 39.3469 52.8529C39.3469 53.7152 37.9256 54.876 37.1985 56.3186C36.4713 57.7613 37.9091 60 37.4629 58.8226C37.0002 57.6453 37.2481 56.8161 37.843 55.987C38.5702 54.9754 40.1236 53.9805 40.1236 52.6373C40.1236 51.5097 38.4875 50.1831 38.4875 50.1831C37.0332 48.7238 36.1077 47.8946 36.1077 47.165C36.1077 46.4354 36.8018 45.7886 38.7519 44.5118C40.6855 43.2515 41.8258 42.754 41.8258 41.5269C41.8258 40.449 41.2805 40.0676 38.0578 38.5088ZM35.5789 33.617C35.7442 33.617 35.8764 33.6999 35.8764 33.7994C35.8764 33.8989 35.7442 33.9818 35.5789 33.9818C35.4136 33.9818 35.2814 33.8989 35.2814 33.7994C35.2814 33.6999 35.4136 33.617 35.5789 33.617Z" fill="#3A75B1"/>
<defs>
<filter id="filter0_d_3080_8880" x="0" y="0" width="76" height="76" filterUnits="userSpaceOnUse" color-interpolation-filters="sRGB">
<feFlood flood-opacity="0" result="BackgroundImageFix"/>
<feColorMatrix in="SourceAlpha" type="matrix" values="0 0 0 0 0 0 0 0 0 0 0 0 0 0 0 0 0 0 127 0" result="hardAlpha"/>
<feOffset/>
<feGaussianBlur stdDeviation="2"/>
<feComposite in2="hardAlpha" operator="out"/>
<feColorMatrix type="matrix" values="0 0 0 0 0.628216 0 0 0 0 0.686157 0 0 0 0 0.689055 0 0 0 1 0"/>
<feBlend mode="normal" in2="BackgroundImageFix" result="effect1_dropShadow_3080_8880"/>
<feBlend mode="normal" in="SourceGraphic" in2="effect1_dropShadow_3080_8880" result="shape"/>
</filter>
<linearGradient id="paint0_linear_3080_8880" x1="67" y1="38" x2="9" y2="38" gradientUnits="userSpaceOnUse">
<stop stop-color="#E4E4E4"/>
<stop offset="1" stop-color="white"/>
</linearGradient>
<linearGradient id="paint1_linear_3080_8880" x1="67" y1="38" x2="9" y2="38" gradientUnits="userSpaceOnUse">
<stop stop-color="white"/>
<stop offset="1" stop-color="#E4E4E4"/>
</linearGradient>
</defs>
</svg>
