<svg width="24" height="24" viewBox="0 0 24 24" fill="none" xmlns="http://www.w3.org/2000/svg">
<path d="M11.8638 6.29762C11.9064 6.3191 11.9405 6.37066 11.9916 6.37066C12.0384 6.37066 12.1107 6.35347 12.115 6.30621C12.1235 6.24606 12.0341 6.20739 11.9788 6.18161C11.9064 6.15154 11.8128 6.13865 11.7447 6.17732C11.7276 6.18591 11.7106 6.20739 11.7191 6.22458C11.7319 6.28043 11.817 6.27184 11.8638 6.29762ZM10.9316 6.37066C10.9827 6.37066 11.0167 6.3191 11.0593 6.29762C11.1061 6.27184 11.1913 6.28043 11.2083 6.22887C11.2168 6.21169 11.1998 6.19021 11.1828 6.18161C11.1146 6.14294 11.021 6.15583 10.9486 6.18591C10.8933 6.21169 10.8039 6.25036 10.8124 6.31051C10.8167 6.35347 10.889 6.37496 10.9316 6.37066ZM20.3392 18.3493C20.186 18.1775 20.1136 17.851 20.0327 17.5029C19.9561 17.1549 19.8667 16.7811 19.5857 16.5405C19.5304 16.4933 19.4751 16.4503 19.4155 16.4159C19.3601 16.3815 19.3005 16.3515 19.2409 16.33C19.6326 15.157 19.4793 13.9884 19.0834 12.9314C18.5982 11.6382 17.7511 10.5082 17.104 9.73483C16.3761 8.81108 15.6695 7.93459 15.6822 6.64134C15.7035 4.66924 15.8993 1.00431 12.4555 1.00001C8.09655 0.991419 9.1863 5.44261 9.13947 6.8089C9.06711 7.81429 8.86703 8.60485 8.18168 9.58875C7.37714 10.5555 6.24482 12.1151 5.70846 13.7435C5.45305 14.5126 5.33386 15.2945 5.44454 16.0335C5.16784 16.2827 4.95926 16.6651 4.7379 16.9014C4.55912 17.0862 4.29945 17.1549 4.01424 17.258C3.72903 17.3611 3.41828 17.5158 3.22673 17.881C3.13733 18.0486 3.10753 18.229 3.10753 18.4138C3.10753 18.5814 3.13307 18.7532 3.15862 18.9208C3.2097 19.2688 3.26504 19.5953 3.19267 19.8145C2.97132 20.4332 2.94152 20.8628 3.09902 21.1765C3.26078 21.4901 3.5843 21.6276 3.95464 21.7049C4.69108 21.8596 5.69143 21.8209 6.47895 22.242C7.3218 22.6888 8.17743 22.8478 8.85852 22.6888C9.35231 22.5771 9.75671 22.2764 9.96104 21.8209C10.4931 21.8166 11.0806 21.5889 12.0171 21.5374C12.6514 21.4858 13.4474 21.7651 14.3626 21.7135C14.3882 21.8123 14.4222 21.9112 14.469 22.0014V22.0057C14.8223 22.7232 15.4822 23.0497 16.1845 22.9939C16.8912 22.938 17.6361 22.5213 18.2406 21.7952C18.8195 21.0905 19.7731 20.7984 20.4073 20.4117C20.7223 20.2183 20.9777 19.9777 20.999 19.6254C21.016 19.2731 20.8117 18.8821 20.3392 18.3493ZM11.9873 4.75087C12.4045 3.79705 13.4431 3.81423 13.8603 4.73369C14.137 5.34379 14.0136 6.06131 13.6773 6.46948C13.6092 6.43511 13.4261 6.35777 13.1409 6.25895C13.1877 6.20739 13.2729 6.14294 13.3069 6.06131C13.5112 5.55432 13.2984 4.90125 12.9195 4.88836C12.6088 4.86688 12.3278 5.35238 12.4172 5.87656C12.2427 5.79063 12.0171 5.72618 11.8638 5.68751C11.8213 5.39105 11.8511 5.06022 11.9873 4.75087ZM10.2548 4.25677C10.6847 4.25677 11.1402 4.86688 11.0678 5.69611C10.9188 5.73907 10.7656 5.80352 10.6336 5.89375C10.6847 5.51136 10.4931 5.03015 10.225 5.05163C9.86739 5.0817 9.8078 5.96249 10.1483 6.25895C10.1909 6.29332 10.2292 6.25036 9.89719 6.49526C9.23312 5.86797 9.45022 4.25677 10.2548 4.25677ZM9.67583 6.86476C9.93976 6.66712 10.2548 6.43511 10.276 6.41362C10.4761 6.22458 10.8507 5.80352 11.4637 5.80352C11.7659 5.80352 12.1278 5.90234 12.5662 6.18591C12.8344 6.36207 13.0472 6.37496 13.5283 6.58548C13.8858 6.73586 14.1115 7.00225 13.9752 7.36745C13.8646 7.6725 13.507 7.98615 13.0089 8.14512C12.5364 8.2998 12.1661 8.83256 11.3828 8.7853C11.2168 8.77671 11.0848 8.74234 10.9742 8.69508C10.6336 8.5447 10.4548 8.24824 10.1228 8.0506C9.75671 7.84437 9.5609 7.60376 9.49705 7.39323C9.43745 7.1827 9.49705 7.00654 9.67583 6.86476ZM9.81631 21.2151C9.70137 22.7232 7.94756 22.6931 6.61091 21.9885C5.33812 21.3096 3.69072 21.7092 3.35443 21.0476C3.25227 20.8456 3.25227 20.5019 3.46511 19.9133V19.9047C3.56727 19.5782 3.49065 19.2172 3.43957 18.8778C3.38849 18.5427 3.36294 18.2333 3.47788 18.0185C3.62687 17.7306 3.83971 17.6275 4.10789 17.533C4.54634 17.374 4.6102 17.3869 4.94223 17.1077C5.17636 16.8628 5.34663 16.5534 5.55096 16.3343C5.76806 16.098 5.97664 15.9863 6.30442 16.0378C6.64922 16.0894 6.9472 16.33 7.23667 16.7253L8.07101 18.2548C8.47541 19.1098 9.9057 20.3343 9.81631 21.2151ZM9.75671 20.1023C9.58218 19.8188 9.34806 19.518 9.14373 19.2602C9.44596 19.2602 9.7482 19.1657 9.85462 18.8778C9.95253 18.6114 9.85462 18.2376 9.53961 17.808C8.96494 17.026 7.90925 16.4116 7.90925 16.4116C7.33457 16.0507 7.01105 15.6082 6.86206 15.127C6.71307 14.6458 6.73436 14.1259 6.84929 13.6146C7.07065 12.6307 7.64107 11.6726 8.00715 11.071C8.10506 10.998 8.04121 11.2085 7.63681 11.9647C7.27498 12.6565 6.59814 14.2548 7.52613 15.5051C7.55167 14.6157 7.76026 13.7091 8.11357 12.8627C8.62439 11.6855 9.70137 9.6446 9.78651 8.02052C9.83334 8.05489 9.98233 8.15801 10.0504 8.19668C10.2462 8.31269 10.3952 8.48455 10.5868 8.63922C11.1146 9.06887 11.8 9.0345 12.3917 8.69078C12.6556 8.5404 12.8685 8.36854 13.0685 8.30409C13.49 8.1709 13.8262 7.93459 14.0178 7.65961C14.3456 8.96576 15.1118 10.8519 15.6014 11.7714C15.861 12.2612 16.3804 13.2966 16.606 14.5469C16.7464 14.5426 16.9039 14.5641 17.07 14.6071C17.6574 13.0732 16.5719 11.4191 16.0781 10.9593C15.878 10.7617 15.8695 10.6758 15.9674 10.6801C16.5038 11.1613 17.2104 12.128 17.4658 13.215C17.585 13.7134 17.6063 14.2333 17.4829 14.7489C18.181 15.041 19.0111 15.5179 18.7897 16.2441C18.6961 16.2398 18.6535 16.2441 18.6109 16.2441C18.7472 15.8101 18.4449 15.4879 17.6404 15.1227C16.806 14.7532 16.1079 14.7532 16.01 15.6597C15.4949 15.8402 15.231 16.2913 15.099 16.8327C14.9799 17.3139 14.9458 17.8939 14.9117 18.547C14.8905 18.8778 14.7585 19.3204 14.6223 19.793C13.2558 20.7769 11.3573 21.2065 9.75671 20.1023ZM20.7138 19.6082C20.6755 20.33 18.96 20.4632 18.0235 21.6061C17.4616 22.2807 16.772 22.6545 16.1675 22.7017C15.563 22.749 15.0394 22.4955 14.733 21.8725C14.5329 21.3956 14.6308 20.88 14.7798 20.3129C14.9373 19.7028 15.1714 19.0755 15.2012 18.5685C15.2353 17.9154 15.2736 17.344 15.38 16.9057C15.4907 16.4632 15.6609 16.1667 15.9632 15.9992C15.976 15.9906 15.993 15.9863 16.0058 15.9777C16.0398 16.5448 16.3165 17.1205 16.806 17.2451C17.3424 17.3869 18.1129 16.9229 18.4407 16.5448C18.8238 16.5319 19.109 16.5061 19.4027 16.7639C19.8241 17.1291 19.7049 18.0658 20.1306 18.5513C20.5819 19.0497 20.7266 19.3891 20.7138 19.6082ZM9.84185 7.38893C9.92699 7.47057 10.0419 7.58228 10.1824 7.69399C10.4633 7.91741 10.855 8.14942 11.3445 8.14942C11.8383 8.14942 12.3023 7.89592 12.6982 7.68539C12.9068 7.57368 13.1622 7.38464 13.3282 7.23856C13.4942 7.09247 13.5794 6.96788 13.4602 6.95499C13.341 6.9421 13.3495 7.06669 13.2048 7.17411C13.0175 7.3116 12.7918 7.49205 12.6131 7.59517C12.298 7.77562 11.783 8.03341 11.3403 8.03341C10.8975 8.03341 10.5442 7.82718 10.2803 7.61665C10.1483 7.50924 10.0377 7.40182 9.95253 7.32019C9.88868 7.26004 9.87165 7.12255 9.76948 7.10966C9.70989 7.10536 9.69286 7.26863 9.84185 7.38893Z" fill="white"/>
</svg>
