<svg width="24" height="24" viewBox="0 0 24 24" fill="none" xmlns="http://www.w3.org/2000/svg">
<path d="M17.3773 12.512C17.3688 11.0372 18.0744 9.92403 19.5027 9.10423C18.7035 8.02323 17.4963 7.42848 15.9022 7.31194C14.3932 7.19942 12.7439 8.14379 12.1403 8.14379C11.5027 8.14379 10.0404 7.35213 8.89267 7.35213C6.52072 7.3883 4 9.1404 4 12.7049C4 13.7578 4.20404 14.8468 4.61211 15.968C5.15622 17.4428 7.12009 21.0595 9.16897 20.9993C10.2402 20.9751 10.9968 20.2799 12.3911 20.2799C13.7428 20.2799 14.4442 20.9993 15.6387 20.9993C17.7046 20.9711 19.4814 17.6839 20 16.2051C17.2285 14.9714 17.3773 12.5884 17.3773 12.512ZM14.9713 5.91348C16.1318 4.61145 16.0255 3.42597 15.9915 3C14.9671 3.05626 13.7811 3.65905 13.1052 4.40249C12.3613 5.19817 11.9235 6.18272 12.017 7.29185C13.1265 7.37222 14.1382 6.83373 14.9713 5.91348Z" fill="white"/>
</svg>
