<svg width="15" height="15" viewBox="0 0 15 15" fill="none" xmlns="http://www.w3.org/2000/svg">
<path d="M7.5 3C5.4375 3 3.75 4.6875 3.75 6.75H6V10.5H4.5C3.25781 10.5 2.25 9.49219 2.25 8.25V6.75C2.25 3.84375 4.59375 1.5 7.5 1.5C10.4062 1.5 12.75 3.84375 12.75 6.75V13.5H12.1875C8.90625 13.5 6.84375 13.5 6 13.5V12.375C6 11.7656 6.51562 11.25 7.125 11.25H7.875C8.50781 11.25 9 11.7656 9 12.375H11.625V10.1953C11.2969 10.3828 10.9219 10.5 10.5 10.5H9V6.75H11.25C11.25 4.6875 9.5625 3 7.5 3Z" fill="white"/>
</svg>
