<svg width="165" height="18" viewBox="0 0 165 18" fill="none" xmlns="http://www.w3.org/2000/svg">
<path d="M17.5 3.25391C18.3284 3.25391 19 3.92548 19 4.75391V14.7539C19 15.5823 18.3284 16.2539 17.5 16.2539H1.5C0.671573 16.2539 0 15.5823 0 14.7539V4.75391C1.28852e-07 3.92548 0.671573 3.25391 1.5 3.25391H17.5ZM5 7.25391V12.2539H9.93848V11.5674H11.4814L12.0312 12.2178L12.0615 12.2539H13.2148L13.0762 12.0889L12.6348 11.5674H14V10.6816H11.8896C11.8356 10.5928 11.8423 10.4759 11.9111 10.3945L12.5098 9.6875C12.7177 9.44162 12.8037 9.12788 12.7695 8.8252H14V7.93945H12.2725L11.7227 7.28906L11.6924 7.25391H10.5391L10.6777 7.41797L11.1191 7.93945H9.93848V7.25391H5ZM12.4199 11.4678L13 12.1533H12.999L12.4189 11.4678H12.4199ZM9.06152 8.13965V8.8252H11.8643C11.9188 8.91416 11.9118 9.03075 11.8428 9.1123L11.2441 9.81934C11.0363 10.0651 10.9504 10.3791 10.9844 10.6816H9.06152V11.3682H5.87695V8.13965H9.06152ZM11.8398 10.7822H11.8389L11.835 10.7773V10.7764L11.8398 10.7822ZM11.9551 9.12695C11.9449 9.14453 11.9334 9.16182 11.9199 9.17773L11.3213 9.88477L11.3203 9.88379L11.9189 9.17676C11.9326 9.16062 11.9449 9.14381 11.9551 9.12598V9.12695ZM11.916 8.72559L11.9199 8.73047H11.9189L11.915 8.72559H11.916ZM11.3359 8.04004H9.83887V8.03906H11.334L10.7549 7.35352L11.3359 8.04004ZM12.2266 8.03906H13.8994V8.04004H12.2266L11.6465 7.35352L12.2266 8.03906Z" fill="white"/>
<path d="M161.527 6.15391V4.30891H162.43C162.547 4.30891 162.653 4.33307 162.75 4.38141C162.848 4.42974 162.926 4.49974 162.982 4.59141C163.041 4.68141 163.07 4.79141 163.07 4.92141C163.07 5.05141 163.04 5.16224 162.98 5.25391C162.92 5.34557 162.84 5.41557 162.74 5.46391C162.64 5.51057 162.529 5.53391 162.408 5.53391H161.79V5.18641H162.307C162.378 5.18641 162.438 5.16391 162.487 5.11891C162.539 5.07391 162.565 5.00724 162.565 4.91891C162.565 4.82724 162.539 4.76224 162.487 4.72391C162.438 4.68391 162.378 4.66391 162.31 4.66391H162.007V6.15391H161.527ZM162.705 5.30141L163.125 6.15391H162.6L162.207 5.30141H162.705ZM162.25 7.25391C161.973 7.25391 161.714 7.20224 161.472 7.09891C161.231 6.99557 161.018 6.85224 160.835 6.66891C160.652 6.48557 160.508 6.27307 160.405 6.03141C160.302 5.78974 160.25 5.53057 160.25 5.25391C160.25 4.97724 160.302 4.71807 160.405 4.47641C160.508 4.23474 160.652 4.02224 160.835 3.83891C161.018 3.65557 161.231 3.51224 161.472 3.40891C161.714 3.30557 161.973 3.25391 162.25 3.25391C162.527 3.25391 162.786 3.30557 163.027 3.40891C163.269 3.51224 163.482 3.65557 163.665 3.83891C163.848 4.02224 163.992 4.23474 164.095 4.47641C164.198 4.71807 164.25 4.97724 164.25 5.25391C164.25 5.53057 164.198 5.78974 164.095 6.03141C163.992 6.27307 163.848 6.48557 163.665 6.66891C163.482 6.85224 163.269 6.99557 163.027 7.09891C162.786 7.20224 162.527 7.25391 162.25 7.25391ZM162.25 6.72641C162.523 6.72641 162.771 6.66057 162.992 6.52891C163.216 6.39557 163.393 6.21807 163.525 5.99641C163.657 5.77307 163.722 5.52557 163.722 5.25391C163.722 4.98224 163.656 4.73557 163.523 4.51391C163.391 4.29057 163.213 4.11307 162.99 3.98141C162.768 3.84807 162.522 3.78141 162.25 3.78141C161.98 3.78141 161.733 3.84807 161.51 3.98141C161.287 4.11307 161.109 4.29057 160.977 4.51391C160.846 4.73557 160.78 4.98224 160.78 5.25391C160.78 5.52557 160.846 5.77307 160.977 5.99641C161.109 6.21807 161.287 6.39557 161.51 6.52891C161.733 6.66057 161.98 6.72641 162.25 6.72641Z" fill="white"/>
<path d="M126.677 3.08398C131.501 3.08399 133.291 3.40575 134.146 4.38965C134.691 5.01408 134.847 5.79025 134.866 7.64453H130.917C130.898 6.90674 130.858 6.75525 130.605 6.58496C130.216 6.32025 129.301 6.24414 126.346 6.24414C121.677 6.24414 121.658 6.26351 121.658 9.53711C121.658 11.6748 121.774 12.3185 122.202 12.6592C122.65 12.9998 122.65 12.9999 126.307 13.0566C130.002 13.0377 130.314 13.0192 130.762 12.6787C130.976 12.4706 131.034 12.1671 131.034 11.2588H129.75V8.74219H134.886V9.08301C134.886 10.3319 134.807 12.4892 134.749 13.0947C134.593 14.5706 133.757 15.4414 132.201 15.7441C130.878 16.0091 129.497 16.084 125.996 16.084C121.542 16.084 120.161 15.9141 119.071 15.1953C118.352 14.7223 117.982 14.0218 117.826 12.792C117.748 12.2432 117.709 10.9941 117.709 9.38574C117.709 5.96084 118.04 4.71164 119.129 3.97363C120.063 3.33026 122.125 3.08398 126.677 3.08398ZM151.437 3.08398C154.782 3.08399 155.988 3.19797 156.883 3.61426C158.069 4.16303 158.497 5.09044 158.497 7.17188V7.7959H154.549C154.51 7.05833 154.471 6.88773 154.315 6.67969C154.082 6.358 152.992 6.24414 150.308 6.24414C147.837 6.24415 147.118 6.32029 146.729 6.62305C146.262 7.00152 146.106 7.73951 146.106 9.65039C146.106 12.8862 146.165 12.9238 150.327 12.9238C154.665 12.9238 154.724 12.9053 154.743 11.0322H158.711C158.73 11.7505 158.75 12.0344 158.75 12.2236C158.75 14.2105 158.225 15.1382 156.883 15.6113C155.832 15.9519 154.393 16.084 151.417 16.084C146.476 16.084 144.841 15.9332 143.771 15.4033C142.819 14.9302 142.391 14.1915 142.235 12.7725C142.177 12.2047 142.157 11.1643 142.157 9.66992C142.157 6.73688 142.254 5.71419 142.565 4.99512C143.305 3.40577 144.745 3.08398 151.437 3.08398ZM53.25 15.8955H49.1064V3.27344H53.25V15.8955ZM68.6846 12.6787H69.0928L68.9961 3.27344H73.0225V15.8955H66.1562L59.3281 6.47168H58.9004L58.9971 15.8955H54.9707V3.27344H61.8955L68.6846 12.6787ZM85.8506 11.4668L89.7217 3.27344H96.8418V15.8955H92.9512L93.0479 6.45215H92.3867L87.5039 15.8955H84.2168L79.334 6.45215H78.6338L78.7314 15.8955H74.8408V3.27344H81.999L85.8506 11.4668ZM117.543 15.8955H112.75L112.361 15.2842C111.358 13.7079 109.619 12.7529 107.75 12.7529C105.882 12.753 104.143 13.7079 103.14 15.2842L102.75 15.8955H97.7402L104.606 3.27344H110.754L117.543 15.8955ZM140.608 15.8955H136.465V3.27344H140.608V15.8955ZM29.75 12.2324L32.916 3.25293H37.6816L40.75 12.2324L43.75 3.25293H47.75L42.75 15.874H38.25L35.25 6.23242L32.25 15.874H27.75L22.75 3.25293H26.75L29.75 12.2324ZM105.226 10.2529H110.125L107.75 6.20703L105.226 10.2529Z" fill="white"/>
</svg>
